<?xml version="1.0" encoding="UTF-8" standalone="no"?>
<!-- Created with Inkscape (http://www.inkscape.org/) -->

<svg
   version="1.1"
   id="svg1"
   width="1024"
   height="1024"
   viewBox="0 0 1024 1024"
   sodipodi:docname="logo hyscode.svg"
   inkscape:version="1.4.3 (0d15f75, 2025-12-25)"
   inkscape:export-filename="logo hyscode-icon-png.png"
   inkscape:export-xdpi="96"
   inkscape:export-ydpi="96"
   xml:space="preserve"
   xmlns:inkscape="http://www.inkscape.org/namespaces/inkscape"
   xmlns:sodipodi="http://sodipodi.sourceforge.net/DTD/sodipodi-0.dtd"
   xmlns="http://www.w3.org/2000/svg"
   xmlns:svg="http://www.w3.org/2000/svg"><defs
     id="defs1" /><sodipodi:namedview
     id="namedview1"
     pagecolor="#ffffff"
     bordercolor="#000000"
     borderopacity="0.25"
     inkscape:showpageshadow="2"
     inkscape:pageopacity="0.0"
     inkscape:pagecheckerboard="0"
     inkscape:deskcolor="#d1d1d1"
     inkscape:zoom="0.78808594"
     inkscape:cx="511.36555"
     inkscape:cy="512"
     inkscape:window-width="1920"
     inkscape:window-height="1009"
     inkscape:window-x="-8"
     inkscape:window-y="-8"
     inkscape:window-maximized="1"
     inkscape:current-layer="g1"
     showguides="true"
     inkscape:export-bgcolor="#ffffff00"><sodipodi:guide
       position="524.05452,686.47336"
       orientation="1,0"
       id="guide1"
       inkscape:locked="false" /><sodipodi:guide
       position="640.79306,515.17224"
       orientation="0,-1"
       id="guide2"
       inkscape:locked="false" /></sodipodi:namedview><g
     inkscape:groupmode="layer"
     inkscape:label="Image"
     id="g1"><path
       style="fill:#7c3aed;stroke-width:1.3168;fill-opacity:1"
       d="m 271.49346,1001.3876 c -8.01818,-2.42388 -13.82633,-10.37919 -13.82633,-18.93765 0,-9.1216 5.59683,-15.81402 16.45992,-19.68196 10.4032,-3.7042 15.85249,-7.89538 20.11304,-15.4694 7.17264,-12.75093 7.94073,-17.41214 8.63734,-52.41539 0.41886,-21.04661 1.36562,-36.23053 2.72354,-43.67926 6.34491,-34.8047 21.89212,-63.5843 47.25125,-87.46723 11.24948,-10.59463 17.66622,-15.13078 33.20223,-23.47141 15.78371,-8.47359 14.42902,-0.74401 14.84627,-84.70925 0.19884,-40.01405 0.53074,-72.75281 0.73756,-72.75281 0.20681,0 8.93248,4.59752 19.39036,10.21673 l 19.01434,10.21673 0.34741,59.9025 c 0.19119,32.96665 -0.21721,63.99187 -0.90823,68.99681 -1.59603,11.55975 -7.77996,24.28145 -14.66973,30.17883 -2.88418,2.46876 -12.22376,8.44037 -20.75461,13.27027 -18.31417,10.36887 -30.10275,20.56191 -39.49696,34.15111 -17.27281,24.98597 -21.55133,43.14839 -21.3845,90.77733 0.14557,41.5553 -5.52633,60.83782 -23.69222,80.54548 -12.40217,13.45478 -36.69249,23.74407 -47.99068,20.32857 z M 376.47702,898.50439 c 0.54943,-35.9572 0.68538,-37.55464 4.07124,-47.83701 7.43699,-22.58505 24.7741,-41.77592 46.36792,-51.32573 11.12986,-4.92215 16.51527,-5.36039 23.61813,-1.92196 7.19564,3.48335 10.37315,8.74647 10.40373,17.23238 0.0336,9.3132 -3.99946,14.61409 -15.40715,20.25075 -13.00922,6.42797 -18.06578,10.92188 -23.26468,20.67602 -4.21895,7.91558 -4.46592,9.15843 -5.36341,26.99057 -1.23927,24.62327 -3.12128,30.25391 -13.61318,40.72836 -8.00833,7.99502 -16.6087,12.40602 -24.18864,12.40602 h -3.19236 z m -97.14489,-24.92103 c -7.16289,-6.28909 -14.5888,-18.0647 -18.67266,-29.6101 l -3.65074,-10.32093 -0.25883,-190.27661 c -0.19194,-141.09471 0.12154,-189.42571 1.21279,-186.98463 10.09394,22.57989 18.47317,36.70295 31.15443,52.51037 l 6.737,8.39779 v 148.70111 148.7011 l -3.19641,11.45062 c -4.4967,16.10863 -6.18226,26.55876 -6.44873,39.98079 -0.12695,6.39316 -0.6546,11.62576 -1.17257,11.62799 -0.51799,0.002 -3.08491,-1.87765 -5.70428,-4.1775 z m 360.06341,-34.59731 c -14.40072,-3.97133 -26.78882,-13.95464 -32.56542,-26.24382 -7.05864,-15.01661 -7.43358,-18.84285 -7.02342,-71.67156 0.26335,-33.92154 -0.0978,-51.44722 -1.16673,-56.62211 C 595.43619,668.93889 587.95931,659.18878 573.42508,651.5675 560.75051,644.92137 515.3813,621.48147 487.44753,607.14738 459.86981,592.996 390.10081,557.00745 364.32737,543.63901 310.50887,515.72387 276.31465,473.44657 262.34206,417.5457 c -8.95341,-35.8204 -7.08974,-69.57725 5.88859,-106.66024 9.24448,-26.41429 22.54336,-47.03624 44.67654,-69.27787 16.40927,-16.48967 24.89513,-22.99832 42.78842,-32.81872 24.17351,-13.2672 47.3315,-11.76107 64.68191,4.20673 16.73011,15.39695 20.62521,33.0268 20.02746,90.64749 -0.35105,33.8395 -0.26996,35.12289 2.68109,42.42836 1.68094,4.16125 5.51329,10.05551 8.56156,13.16794 5.70443,5.82448 8.44015,7.30483 110.19871,59.63081 70.92183,36.46921 88.54422,45.62834 96.1259,49.96091 3.9833,2.27625 12.87165,7.01667 19.7519,10.53426 6.88023,3.51759 15.17604,8.18662 18.4351,10.37565 16.09725,10.81204 40.38232,33.85751 50.88881,48.29125 22.86392,31.41023 36.01954,72.17625 36.01954,111.61557 0,67.34966 -28.21008,124.29542 -83.88,169.32294 -23.02071,18.61984 -41.91598,24.94499 -59.79205,20.01527 z m 19.57348,-53.06748 c 22.31203,-35.73869 29.82346,-70.7442 22.69068,-105.74534 -3.06081,-15.01961 -8.90694,-31.64467 -14.78594,-42.04773 -10.63878,-18.82565 -28.1329,-37.79546 -45.77173,-49.63274 -11.13079,-7.4698 -80.21556,-43.42177 -194.96689,-101.46153 -60.75119,-30.72715 -94.56424,-72.28161 -106.69221,-131.11911 -4.42526,-21.46867 -2.43396,-53.88746 4.80802,-78.27569 1.4467,-4.87196 -1.18055,-3.33776 -4.52851,2.64444 -19.86194,35.48973 -25.30331,53.67997 -25.50185,85.2515 -0.2692,42.81175 15.71772,80.39008 47.67375,112.06037 17.22514,17.07111 24.29237,21.23527 119.87573,70.63323 11.94989,6.17578 28.83777,14.92431 37.5286,19.44119 8.69083,4.51689 28.83777,14.88552 44.77097,23.04142 48.04016,24.59082 53.45718,27.62169 67.31336,37.6625 18.63724,13.50533 26.62147,23.29673 33.86905,41.53502 7.62548,19.18918 7.46864,38.61573 -0.57868,71.67557 -3.51002,14.41992 -4.04411,18.72628 -3.50361,28.24956 0.84434,14.87646 4.68052,22.17186 11.72723,22.30207 1.19192,0.0219 3.92433,-2.77461 6.07203,-6.21473 z m 70.94364,-52.34252 c 5.03622,-11.35871 11.75221,-37.04028 13.59298,-51.97879 5.05656,-41.03589 -5.49702,-83.85679 -28.80383,-116.87083 -11.74786,-16.64081 -31.48386,-34.87643 -48.92007,-45.20107 -8.29981,-4.91463 -96.10461,-51.00373 -144.09759,-75.63743 -53.09954,-27.25475 -88.79807,-46.46285 -95.31496,-51.28557 -15.47554,-11.45241 -25.83654,-25.4011 -31.35555,-42.21311 -4.44241,-13.53247 -4.88311,-33.78704 -1.20742,-55.49219 2.05705,-12.14698 2.24549,-16.28257 1.09508,-24.03349 -2.2979,-15.48227 -8.47534,-24.7988 -12.7339,-19.20473 -4.34914,5.71301 -14.02391,25.89927 -17.76577,37.06803 -14.60907,43.60513 -2.00223,91.68362 33.47471,127.66196 12.97184,13.15515 25.12859,20.54323 77.72005,47.23321 25.34827,12.86415 54.38356,27.69006 64.52286,32.94646 10.13931,5.2564 33.24903,17.10401 51.35493,26.32804 40.67062,20.71961 48.21237,25.05089 63.45465,36.44259 35.27291,26.36205 58.74238,65.26495 67.73772,112.28176 3.58196,18.72222 2.99594,49.69014 -1.31842,69.67167 -1.54188,7.14102 -2.79267,13.36287 -2.77955,13.82633 0.0409,1.44704 7.06523,-11.89231 11.34408,-21.54284 z m -401.1387,-81.64118 c 0,-59.74948 0.32303,-108.63543 0.71786,-108.63543 0.39483,0 5.02815,2.90856 10.29628,6.46346 5.26813,3.55489 13.83345,8.63191 19.03403,11.28228 l 9.45562,4.81884 v 80.12714 c 0,44.06992 -0.3571,81.05773 -0.79356,82.19511 -0.43645,1.13739 -5.32505,5.27374 -10.86355,9.19188 -5.53848,3.91814 -13.60676,10.73924 -17.92952,15.15802 -4.32274,4.41878 -8.3225,8.03413 -8.88835,8.03413 -0.56584,0 -1.02881,-48.88594 -1.02881,-108.63543 z M 778.6955,557.32665 c -4.43785,-10.187 -19.21139,-32.98775 -27.71769,-42.77814 -3.35642,-3.8631 -6.414,-8.30728 -6.7946,-9.87595 -0.38059,-1.56865 -0.52752,-56.77478 -0.32651,-122.68028 l 0.36548,-119.82818 5.40759,-11.85113 c 8.97554,-19.67062 12.73773,-39.55957 12.57878,-66.49805 l -0.11274,-19.0935 4.64388,5.25406 c 6.43034,7.27526 11.79344,19.14772 14.28184,31.61614 1.8738,9.38891 2.06353,29.76521 1.745,187.39704 l -0.35735,176.86269 z m -87.47284,-90.40121 -18.76292,-11.19274 -10e-4,-63.29139 -0.001,-63.29139 4.74771,-2.26401 c 5.90057,-2.81379 20.50123,-12.33864 27.51372,-17.94879 l 5.26718,-4.21387 0.34694,43.5725 c 0.19082,23.96487 0.19082,62.97872 0,86.69746 l -0.34709,43.12497 z m -68.80383,-36.32098 c -9.05296,-4.74127 -17.82845,-9.50775 -19.50109,-10.59216 l -3.04119,-1.97165 0.4076,-54.89439 0.40759,-54.89439 3.21104,-6.47439 c 5.63775,-11.3674 15.18818,-19.45218 33.59902,-28.44283 28.71966,-14.02481 40.55774,-23.97776 49.36446,-41.50354 9.16607,-18.24094 9.57331,-21.47071 10.61981,-84.228 1.0612,-63.639011 1.48354,-67.068651 10.57146,-85.844265 10.8023,-22.317523 32.44316,-38.542178 52.95778,-39.703669 10.11307,-0.572568 13.90528,1.117997 18.15984,8.095683 3.46003,5.674615 3.42108,15.697149 -0.083,21.366878 -2.41775,3.911994 -8.99715,8.002297 -16.72747,10.39915 -4.33125,1.342957 -11.78381,10.718696 -15.16918,19.083677 -2.93407,7.249855 -2.96834,8.019362 -2.59602,58.283486 0.22474,30.33984 -0.18844,55.63171 -1.02183,62.54768 -2.83035,23.4882 -12.13819,48.34966 -24.70156,65.97841 -15.81584,22.19254 -42.28087,41.44397 -69.03417,50.21748 -4.83377,1.5852 -9.52097,3.76453 -10.416,4.84297 -1.26803,1.52788 -1.4268,14.59446 -0.71909,59.18149 0.49953,31.47139 0.74256,57.20994 0.54006,57.19681 -0.20248,-0.0131 -7.77512,-3.90315 -16.82807,-8.64443 z M 597.56146,246.96613 c -10.04971,-2.25494 -16.30744,-10.84128 -15.51435,-21.28752 0.81032,-10.6732 7.57529,-16.87959 22.59501,-20.72945 7.7101,-1.97626 13.24091,-5.82184 17.39481,-12.09463 l 3.67388,-5.54792 0.77979,-31.04449 c 0.42889,-17.07447 1.43882,-33.02024 2.2443,-35.43504 4.39863,-13.18704 15.9618,-24.855934 28.24557,-28.50382 3.70533,-1.100365 7.22195,-2.000656 7.81474,-2.000656 0.59278,0 1.0675,21.480196 1.05493,47.733746 -0.0253,52.91512 -0.70264,59.19712 -7.92476,73.50407 -4.60836,9.1291 -15.13757,20.2766 -24.12908,25.54597 -6.10449,3.57748 -21.29413,9.15153 -27.83739,10.21533 -2.1727,0.35323 -5.95156,0.19322 -8.39745,-0.35559 z"
       id="path1" /></g></svg>
